<?xml version="1.0" ?><svg id="Layer_1" style="enable-background:new 0 0 128 128;" version="1.1" viewBox="0 0 128 128" xml:space="preserve" xmlns="http://www.w3.org/2000/svg" xmlns:xlink="http://www.w3.org/1999/xlink"><style type="text/css">
	.st0{fill:none;stroke:#1D1952;stroke-width:4;stroke-linecap:round;stroke-miterlimit:10;}
	.st1{fill:#F73959;}
	.st2{opacity:0.5;fill:#C02344;}
	.st3{fill:none;stroke:#FFFFFF;stroke-width:4;stroke-linecap:round;stroke-linejoin:round;stroke-miterlimit:10;}
	.st4{fill:#F95F80;}
	.st5{fill:#FFFFFF;}
	.st6{fill:#1D1952;}
	.st7{fill:#EF8FA9;}
	.st8{fill:none;stroke:#AAAAE5;stroke-width:4;stroke-linecap:round;stroke-miterlimit:10;}
	.st9{fill:#AAAAE5;}
	.st10{fill:#FFCE00;}
	.st11{fill:#8E072B;}
	.st12{opacity:0.5;fill:#F73959;}
	.st13{fill:none;stroke:#C02344;stroke-width:4;stroke-linecap:round;stroke-linejoin:round;stroke-miterlimit:10;}
	.st14{fill:none;stroke:#FFAA00;stroke-width:4;stroke-linecap:round;stroke-linejoin:round;stroke-miterlimit:10;}
	.st15{fill:#FFAA00;}
	.st16{fill:none;stroke:#FFFFFF;stroke-width:3;stroke-linecap:round;stroke-linejoin:round;stroke-miterlimit:10;}
	.st17{fill:none;stroke:#1D1952;stroke-width:3;stroke-linecap:round;stroke-miterlimit:10;}
	.st18{fill:none;stroke:#C02344;stroke-width:6;stroke-linecap:round;stroke-linejoin:round;stroke-miterlimit:10;}
	.st19{fill:none;stroke:#AAAAE5;stroke-width:4;stroke-linecap:round;stroke-linejoin:round;stroke-miterlimit:10;}
	.st20{fill:#E87498;}
	.st21{fill:none;stroke:#1D1952;stroke-width:4;stroke-miterlimit:10;}
	.st22{fill:none;stroke:#FFAA00;stroke-width:4;stroke-linecap:round;stroke-miterlimit:10;}
	.st23{fill:#7A61F7;}
	.st24{fill:none;stroke:#FFCE00;stroke-width:4;stroke-linecap:round;stroke-miterlimit:10;}
</style><g><path class="st0" d="M112.9,100l3.3-25.6"/><path class="st1" d="M99.1,23.1C76,15.7,64,31.7,64,31.7s-12-16-35.1-8.6c-29,9.3-32,47.6-7,70.9c19.1,17.7,33.6,25,39.3,27.5   c1.8,0.7,3.7,0.7,5.5,0c5.8-2.4,20.2-9.7,39.3-27.5C131.1,70.7,128.1,32.4,99.1,23.1z"/><path class="st2" d="M108.1,85c-11.6,10.8-21.6,17.7-28.8,22c-8.2,4.8-18.3,4.8-26.5,0c-7.3-4.3-17.2-11.2-28.8-22   C11.3,73.3,5.8,57.7,7.2,44C1.7,59.5,6.4,79.6,21.9,94c19.1,17.7,33.6,25,39.3,27.5c1.8,0.7,3.7,0.7,5.5,0   c5.8-2.4,20.2-9.7,39.3-27.5c9.8-9.1,15.2-20.4,16.6-31.5C120,70.5,115.2,78.4,108.1,85z"/><path class="st3" d="M39.6,29.2c0.4,0,0.8,0,1.2,0"/><path class="st3" d="M17.8,40.6c3.2-4.6,7.8-8,13.6-9.9"/><path class="st3" d="M95.6,30.4c0.4,0.1,0.7,0.2,1.1,0.3"/><path class="st3" d="M70.4,36.5c0.2-0.2,5.9-7.3,16.8-7.3"/><circle class="st4" cx="36" cy="81" r="9"/><circle class="st4" cx="95" cy="81" r="9"/><g><circle class="st5" cx="45.7" cy="62" r="17"/><circle class="st6" cx="46.8" cy="62" r="12.5"/><path class="st3" d="M38.9,62c0-1.7,0.5-3.2,1.4-4.5"/><path class="st3" d="M45.2,54.2c0.5-0.1,1.1-0.2,1.6-0.2"/></g><g><circle class="st5" cx="89.3" cy="62" r="17"/><circle class="st6" cx="88.4" cy="62" r="12.5"/><path class="st3" d="M80.4,62c0-1.7,0.5-3.2,1.4-4.5"/><path class="st3" d="M86.8,54.2c0.5-0.1,1.1-0.2,1.6-0.2"/></g><path class="st6" d="M66.5,96L66.5,96c-4.7,0-8.5-3.8-8.5-8.5V81c0-1.1,0.9-2,2-2h13c1.1,0,2,0.9,2,2v6.5C75,92.2,71.2,96,66.5,96z   "/><path class="st7" d="M66.5,96c2.6,0,4.9-1.2,6.5-3c-1.6-3.3-5.1-6-9-6c-2.3,0-4.3,0-6,0v0.5C58,92.2,61.8,96,66.5,96z"/><path class="st5" d="M58,83h10c1.1,0,2-0.9,2-2v-2H60c-1.1,0-2,0.9-2,2V83z"/><g><path class="st0" d="M47.4,105L47.4,105c-0.7,1.2-1.6,2.3-2.4,3.5c-4.6,6.2-13.4,7.6-19.7,3.2l0,0c-3.1-2.1-5.2-5.4-6-9.1l-5.3-27    "/><path class="st0" d="M47.4,105c-0.1-3.6-3.4-5.8-3.4-5.8"/><line class="st0" x1="50.6" x2="47.6" y1="96.3" y2="102.3"/><line class="st0" x1="53.4" x2="47.9" y1="99.3" y2="103.7"/><line class="st0" x1="54.8" x2="47.4" y1="102.6" y2="105"/></g><g><path class="st0" d="M85.6,106L85.6,106c0.1,0.1,0.1,0.2,0.2,0.3c5.2,7.8,16.2,8.8,22.8,2.2l0,0c2.3-2.3,3.8-5.3,4.2-8.6"/><path class="st0" d="M85.6,106c0-3.6,3.4-5.8,3.4-5.8"/><line class="st0" x1="82.4" x2="85.4" y1="97.4" y2="103.3"/><line class="st0" x1="79.6" x2="85.1" y1="100.4" y2="104.7"/><line class="st0" x1="78.2" x2="85.6" y1="103.7" y2="106"/></g><path class="st4" d="M52.1,10.2c-1.8-0.6-2.8,0.7-2.8,0.7s-1-1.3-2.8-0.7c-2.3,0.7-2.6,3.8-0.6,5.7c1.5,1.4,2.7,2,3.2,2.2   c0.1,0.1,0.3,0.1,0.4,0c0.5-0.2,1.6-0.8,3.2-2.2C54.7,14.1,54.4,11,52.1,10.2z"/><path class="st4" d="M99.5,4.7c-2.4-0.8-3.7,0.9-3.7,0.9s-1.3-1.7-3.7-0.9c-3.1,1-3.4,5-0.7,7.5c2,1.9,3.5,2.6,4.2,2.9   c0.2,0.1,0.4,0.1,0.6,0c0.6-0.3,2.1-1,4.2-2.9C102.9,9.8,102.5,5.7,99.5,4.7z"/><path class="st7" d="M35.3,3.9c-2.6-0.8-4,1-4,1s-1.4-1.8-4-1C24,4.9,23.6,9.3,26.5,12c2.2,2,3.8,2.9,4.5,3.1   c0.2,0.1,0.4,0.1,0.6,0c0.7-0.3,2.3-1.1,4.5-3.1C38.9,9.3,38.6,4.9,35.3,3.9z"/><circle class="st8" cx="110" cy="17" r="4"/><circle class="st9" cx="17" cy="18" r="3"/></g></svg>